<svg class="md:w-52 sm:w-40 w-24 sm:inline-block dark:hidden hidden" width="220" version="1.1" id="Layer_1" xmlns="http://www.w3.org/2000/svg" xmlns:xlink="http://www.w3.org/1999/xlink" x="0px" y="0px" viewBox="0 0 578 128" style="enable-background: new 0 0 578 128" xml:space="preserve">
    <style type="text/css">
        .st0 {
            fill: #ffffff;
        }

        .st1 {
            fill: #ff9900;
        }

        .st2 {
            fill: #ff3333;
        }

        .st3 {
            fill: #637789;
        }
    </style>
    <g>
        <g>
            <g>
                <polygon class="st1" points="46.3,124.7 31.8,103.4 46.3,88.9 60.9,103.4 			"></polygon>
                <path class="st2" d="M86.5,43.7v48l-20-15.1c0,0,2.2-18.7,2.6-32.9c0.2-7-6.4-13-22.6-21c-16.3,8.1-22.8,14-22.6,21
                    c0.4,14.2,2.6,32.9,2.6,32.9l-20,15.1v-48c0-8.5,3.6-16.2,10.7-22.8c5-4.7,11.9-9,22.3-14.1l7-3.5l7,3.5
                    c10.4,5.1,17.3,9.5,22.3,14.1C82.9,27.5,86.5,35.2,86.5,43.7z"></path>
            </g>
            <path class="st3" d="M163.7,86.1l-17-16.5h-21.5v16.5h-12V26.4h43.7c10.3,0,18.9,9.9,18.9,21.6c0,9.2-5.5,17.7-13.2,20.5
                l17.9,17.6H163.7z M156.4,56.5c3.9,0,7.4-4,7.4-8.5c0-4.6-3.4-8.5-7.4-8.5h-31.2v16.9H156.4z"></path>
            <path class="st3" d="M216.1,87.4c-21.3,0-33.5-10.8-33.5-29.6v-2.9c0-18.8,12.2-29.7,33.5-29.7c21.3,0,33.5,10.8,33.5,29.7v2.9
                C249.6,76.6,237.4,87.4,216.1,87.4z M216.1,39c-12.9,0-21.4,2.7-21.4,16.1v2.4c0,13.3,8.6,16.1,21.4,16.1
                c11.2,0,21.5-1.9,21.5-16.1V55C237.6,40.9,227.3,39,216.1,39z"></path>
            <path class="st3" d="M289.2,87.4c-21.3,0-33.5-10.8-33.5-29.6v-2.9c0-18.8,12.2-29.7,33.5-29.7c21.3,0,33.5,10.8,33.5,29.7v2.9
                C322.7,76.6,310.5,87.4,289.2,87.4z M289.2,39c-12.9,0-21.4,2.7-21.4,16.1v2.4c0,13.3,8.6,16.1,21.4,16.1
                c11.2,0,21.5-1.9,21.5-16.1V55C310.8,40.9,300.4,39,289.2,39z"></path>
            <polygon class="st3" points="537.5,86.1 537.5,40.1 515.4,40.1 515.4,26.4 571.6,26.4 571.6,40.1 549.5,40.1 549.5,86.1 		">
            </polygon>
            <path class="st3" d="M362.2,87.1c-10,0-33.2-2.9-33.2-29.4v-3c0-26.5,23.2-29.4,33.2-29.4c14.9,0,20.7,3,22.1,3.9l0.5,0.3v11.7
                l-1.4-0.5c-2.3-0.8-10.4-3.4-21.2-3.4c-13.7,0-20.6,5.9-20.6,17.6v2.5c0,11.7,6.9,17.6,20.6,17.6c10.7,0,18.9-2.6,21.2-3.4
                l1.4-0.5v11.7l-0.5,0.3C382.9,84.1,377.1,87.1,362.2,87.1z"></path>
            <polygon class="st3" points="432.6,85.8 404.9,60.2 404.9,85.8 392.3,85.8 392.3,26.6 404.9,26.6 404.9,52.8 432,26.6 450.4,26.6 
                420,56.2 452.3,85.8 		"></polygon>
            <polygon class="st3" points="456,85.8 456,26.6 509.3,26.6 509.3,38.5 468.6,38.5 468.6,50.5 506.3,50.5 506.3,61.9 468.6,61.9 
                468.6,73.9 509.3,73.9 509.3,85.8 		"></polygon>
        </g>
    </g>
</svg>