<svg class="sm:hidden inline-block sm:ml-0 -ml-6" width="29" height="43" viewBox="0 0 29 43" fill="none" xmlns="http://www.w3.org/2000/svg">
    <path d="M14.0969 42.9998L8.96094 35.4553L14.0969 30.3193L19.2682 35.4553L14.0969 42.9998Z" fill="#FF9900"></path>
    <path d="M28.3362 14.3098V31.3115L21.2521 25.963C21.2521 25.963 22.0314 19.3394 22.1731 14.3098C22.2439 11.8304 19.9062 9.70514 14.1681 6.87152C8.39459 9.74056 6.09228 11.8304 6.16312 14.3098C6.3048 19.3394 7.08404 25.963 7.08404 25.963L0 31.3115V14.3098C0 11.299 1.27513 8.57169 3.78996 6.23396C5.56097 4.56921 8.00497 3.04614 11.6887 1.23971L14.1681 0L16.6475 1.23971C20.3312 3.04614 22.7752 4.60463 24.5462 6.23396C27.061 8.57169 28.3362 11.299 28.3362 14.3098Z" fill="#FF3333"></path>
</svg>